<svg xmlns="http://www.w3.org/2000/svg" viewBox="0 0 1254 1254" width="1254" height="1254" role="img" aria-labelledby="title desc">
  <title id="title">Traced monochrome wave logo</title>
  <desc id="desc">A traced white circular wave logo.</desc>
  <defs>
    <filter id="white-glow" x="-12%" y="-12%" width="124%" height="124%" color-interpolation-filters="sRGB">
      <feGaussianBlur in="SourceGraphic" stdDeviation="6" result="blur"/>
      <feColorMatrix
        in="blur"
        type="matrix"
        values="1 0 0 0 0
                0 1 0 0 0
                0 0 1 0 0
                0 0 0 0.35 0"
        result="glow"
      />
      <feMerge>
        <feMergeNode in="glow"/>
        <feMergeNode in="SourceGraphic"/>
      </feMerge>
    </filter>
  </defs>
  <path
    d="M 652.0 943.1 C 641.2 942.8, 609.7 944.5, 587.0 941.3 C 564.3 938.2, 536.3 930.9, 516.0 924.2 C 495.7 917.5, 483.1 911.7, 465.0 901.1 C 446.9 890.6, 424.6 875.5, 407.6 861.0 C 390.6 846.5, 376.5 831.5, 363.0 814.2 C 349.5 796.9, 336.1 773.9, 326.7 757.0 C 317.4 740.1, 312.4 733.7, 307.1 713.0 C 301.7 692.3, 296.7 657.0, 294.6 633.0 C 292.5 609.0, 292.2 590.7, 294.6 569.0 C 297.0 547.3, 301.4 524.8, 308.8 503.0 C 316.2 481.2, 328.0 456.7, 338.9 438.0 C 349.7 419.3, 359.6 406.5, 374.0 390.6 C 388.4 374.7, 408.5 355.8, 425.0 342.6 C 441.5 329.5, 454.8 321.0, 473.0 311.7 C 491.2 302.5, 511.8 293.2, 534.0 286.9 C 556.2 280.5, 585.0 275.6, 606.0 273.6 C 627.0 271.5, 640.0 272.2, 660.0 274.7 C 680.0 277.2, 707.0 283.0, 726.0 288.5 C 745.0 294.0, 756.2 298.2, 774.0 307.8 C 791.8 317.3, 815.3 331.8, 833.0 345.6 C 850.7 359.4, 866.3 374.9, 880.0 390.6 C 893.7 406.3, 905.6 423.8, 915.1 440.0 C 924.7 456.2, 930.7 469.0, 937.5 488.0 C 944.2 507.0, 952.3 530.2, 955.6 554.0 C 958.9 577.8, 959.0 606.8, 957.4 631.0 C 955.9 655.2, 951.2 678.8, 946.1 699.0 C 941.1 719.2, 936.4 733.1, 927.2 752.0 C 918.1 770.9, 904.8 793.9, 891.0 812.2 C 877.2 830.5, 861.6 847.1, 844.4 862.0 C 827.2 876.9, 807.9 890.5, 788.0 901.7 C 768.1 912.9, 747.7 922.2, 725.0 929.1 C 702.3 936.0, 664.2 940.8, 652.0 943.1 C 639.8 945.5, 662.8 943.4, 652.0 943.1 Z
        M 712.1 706.0 C 714.4 704.7, 720.4 703.6, 726.0 698.5 C 731.6 693.3, 734.9 696.2, 745.7 675.0 C 756.5 653.8, 778.2 597.0, 790.8 571.0 C 803.3 545.0, 810.5 531.8, 821.2 519.0 C 831.9 506.2, 844.0 498.2, 855.0 494.0 C 866.0 489.8, 877.7 490.9, 887.0 493.7 C 896.3 496.4, 905.5 508.5, 911.0 510.7 C 916.5 512.9, 919.9 511.9, 920.0 506.9 C 920.1 502.0, 915.6 490.3, 911.7 481.0 C 907.8 471.7, 905.1 464.2, 896.7 451.0 C 888.3 437.8, 874.6 417.1, 861.4 402.0 C 848.1 386.9, 832.1 372.5, 817.0 360.6 C 801.9 348.8, 787.3 339.4, 771.0 330.7 C 754.7 322.1, 739.2 314.7, 719.0 308.9 C 698.8 303.0, 671.0 297.6, 650.0 295.6 C 629.0 293.5, 612.5 294.3, 593.0 296.7 C 573.5 299.1, 551.2 304.2, 533.0 309.8 C 514.8 315.4, 501.8 320.3, 484.0 330.3 C 466.2 340.3, 440.6 358.4, 426.0 369.6 C 411.4 380.9, 405.7 387.9, 396.5 398.0 C 387.3 408.1, 378.2 419.8, 370.9 430.0 C 363.6 440.2, 359.2 446.2, 352.8 459.0 C 346.3 471.8, 337.1 492.5, 331.9 507.0 C 326.8 521.5, 324.1 532.8, 321.7 546.0 C 319.3 559.2, 317.5 573.0, 317.5 586.0 C 317.5 599.0, 318.9 612.5, 321.5 624.0 C 324.1 635.5, 328.4 647.0, 333.0 655.0 C 337.6 663.0, 343.5 668.9, 349.0 672.0 C 354.5 675.0, 360.7 674.2, 366.0 673.5 C 371.3 672.8, 375.0 673.9, 381.0 667.5 C 387.0 661.1, 393.2 654.9, 402.2 635.0 C 411.3 615.1, 426.4 569.9, 435.5 548.0 C 444.6 526.1, 450.6 514.9, 457.0 503.9 C 463.4 492.9, 468.9 487.5, 474.0 482.0 C 479.1 476.5, 481.8 474.2, 487.6 471.0 C 493.4 467.8, 501.6 464.2, 509.0 462.7 C 516.4 461.1, 523.8 460.5, 532.0 461.7 C 540.2 462.9, 549.5 464.7, 558.0 469.8 C 566.5 475.0, 572.9 478.5, 583.0 492.8 C 593.1 507.2, 604.1 525.6, 618.6 556.0 C 633.2 586.4, 660.2 653.9, 670.3 675.0 C 680.4 696.1, 677.3 680.2, 679.0 682.9 C 680.7 685.6, 679.3 688.4, 680.7 691.0 C 682.0 693.6, 681.8 695.7, 687.0 698.2 C 692.2 700.7, 707.9 704.7, 712.1 706.0 C 716.3 707.3, 709.8 707.3, 712.1 706.0 Z
        M 647.5 922.0 C 657.6 920.4, 686.8 918.3, 708.0 912.1 C 729.2 905.9, 754.1 896.2, 775.0 884.7 C 795.9 873.2, 816.2 858.5, 833.4 843.0 C 850.6 827.5, 867.7 805.5, 878.1 792.0 C 888.6 778.5, 890.2 774.0, 896.3 762.0 C 902.3 750.0, 909.7 732.8, 914.2 720.0 C 918.7 707.2, 921.1 696.3, 923.3 685.0 C 925.5 673.7, 927.1 663.7, 927.4 652.0 C 927.8 640.3, 927.0 626.3, 925.4 615.0 C 923.8 603.7, 922.0 594.0, 917.8 584.0 C 913.6 574.0, 905.5 561.2, 900.0 554.8 C 894.5 548.5, 890.2 547.9, 885.0 545.9 C 879.8 543.8, 874.2 542.2, 869.0 542.4 C 863.8 542.6, 858.5 544.4, 854.0 546.9 C 849.5 549.4, 847.4 550.2, 842.0 557.5 C 836.6 564.9, 830.9 570.1, 821.8 591.0 C 812.6 611.9, 797.1 659.8, 787.2 683.0 C 777.2 706.2, 770.8 718.1, 762.1 730.0 C 753.4 741.9, 742.2 749.3, 735.0 754.3 C 727.8 759.4, 724.7 758.9, 719.0 760.1 C 713.3 761.3, 708.7 763.1, 701.0 761.4 C 693.3 759.8, 680.1 754.3, 673.0 750.4 C 665.9 746.4, 663.4 743.4, 658.5 738.0 C 653.6 732.6, 657.7 746.3, 643.5 718.0 C 629.3 689.7, 588.7 599.1, 573.3 568.0 C 557.8 536.9, 558.2 540.0, 551.0 531.7 C 543.8 523.3, 536.7 519.9, 530.0 517.7 C 523.3 515.6, 516.7 517.0, 511.0 518.9 C 505.3 520.8, 500.5 524.0, 495.5 529.0 C 490.5 534.0, 493.3 523.5, 480.9 549.0 C 468.4 574.5, 434.8 655.0, 421.0 681.8 C 407.2 708.7, 405.2 703.3, 398.0 710.1 C 390.8 716.9, 384.5 720.1, 378.0 722.7 C 371.5 725.3, 364.2 725.8, 359.0 725.5 C 353.8 725.1, 350.5 721.0, 347.0 720.8 C 343.5 720.5, 339.6 722.4, 338.0 724.1 C 336.4 725.8, 335.8 726.3, 337.3 731.0 C 338.9 735.7, 339.1 738.8, 347.3 752.0 C 355.5 765.2, 375.3 795.3, 386.6 810.0 C 398.0 824.7, 403.7 829.7, 415.6 840.0 C 427.4 850.3, 444.6 863.2, 457.8 872.0 C 471.0 880.8, 480.0 886.0, 495.0 892.7 C 510.0 899.4, 530.7 907.3, 548.0 912.1 C 565.3 916.9, 582.4 919.8, 599.0 921.4 C 615.6 923.1, 639.4 921.9, 647.5 922.0 C 655.6 922.1, 637.4 923.6, 647.5 922.0 Z"
    fill="#fff"
    fill-rule="evenodd"
    filter="url(#white-glow)"
  />
</svg>
